<svg width="45" height="16" viewBox="0 0 45 16" fill="none" xmlns="http://www.w3.org/2000/svg">
<rect width="45" height="16" rx="2" fill="#FFF2D6"/>
<path d="M10.0608 7.74023H12.0086H15.7997L12.0086 9.68809L10.0608 7.74023V9.68809V7.74023Z" fill="#FFB700"/>
<path d="M10.0608 7.74023L12.0086 9.68809L10.0608 13.4791V9.68809V7.74023Z" fill="#F2AE00"/>
<path d="M10.0575 7.74023V13.4791L8.10962 9.68809L10.0575 7.74023Z" fill="#FFCB47"/>
<path d="M10.0595 7.74023L8.11162 9.68809L4.32056 7.74024L10.0595 7.74023Z" fill="#FFBF1B"/>
<path d="M10.0595 7.73691H4.32056L8.11162 5.78906L10.0595 7.73691Z" fill="#FFE49F"/>
<path d="M12.0086 5.78906L15.7997 7.73692H10.0608L12.0086 5.78906Z" fill="#FFCE52"/>
<path d="M10.0575 2V7.73891L8.10962 5.79106L10.0575 2Z" fill="#FFDD86"/>
<path d="M10.0608 2L12.0086 5.79106L10.0608 7.73891V2Z" fill="#FFC634"/>
<path d="M20.25 3.32812V10.9688H24.1875V12.2344H18.8906V3.32812H20.25ZM27.6094 12.2344L24.6562 3.32812H26.1562L28.4531 10.6875L30.7031 3.32812H32.2031L29.25 12.2344H27.6094ZM37.0312 12.2344V10.125H33V8.90625L37.0312 3.32812H38.4375V8.90625H39.75V10.125H38.4375V12.2344H37.0312ZM34.5 8.90625H37.0312V5.39062L34.5 8.90625Z" fill="#F2AE00"/>
</svg>
